# xmcd CD database file
#
# Track frame offsets:
#	150
#	26652
#	51228
#	73697
#	85432
#	106251
#	120737
#	133737
#	148631
#	168623
#	181068
#	207784
#	222816
#	242663
#	261421
#	291017
#
# Disc length: 4204 seconds
#
# Revision: 0
# Processed by: cddbd v1.5.2PL0 Copyright (c) Steve Scherf et al.
# Submitted via: CDex 1.51
#
DISCID=f4106a10
DTITLE=Le Jazz Ensemble de Tulle - sans titre
DYEAR=2005
DGENRE=Jazz
TTITLE0=Power To Spare
TTITLE1=Shiny Stockings
TTITLE2=Chameleon
TTITLE3=Fly Me To The Moon
TTITLE4=Mambo Jambo
TTITLE5=Fever
TTITLE6=The Heat's On
TTITLE7=Against All Odds
TTITLE8=Hands Off
TTITLE9=Tickles Toes
TTITLE10=Spain
TTITLE11=How Sweet It Is
TTITLE12=Groovin' Hard
TTITLE13=Kick Back
TTITLE14=Mercy Mercy Mercy
TTITLE15=Oye Como Va
EXTD=YEAR: 2005
EXTT0=
EXTT1=
EXTT2=
EXTT3=
EXTT4=
EXTT5=
EXTT6=
EXTT7=
EXTT8=
EXTT9=
EXTT10=
EXTT11=
EXTT12=
EXTT13=
EXTT14=
EXTT15=
PLAYORDER=
